<svg width="50" height="50" viewBox="0 0 50 50" fill="none" xmlns="http://www.w3.org/2000/svg">
<path d="M48.0693 21.8094C49.9354 21.8094 50.7145 19.2774 49.1986 18.1102L26.1352 0.392244C25.8058 0.137392 25.4082 0 24.9999 0C24.5915 0 24.1939 0.137392 23.8645 0.392244L0.801062 18.1102C-0.714759 19.271 0.0642885 21.8094 1.93642 21.8094H5.67464V45.663H1.32647C1.06074 45.663 0.843336 45.8926 0.843336 46.1732V49.4898C0.843336 49.7704 1.06074 50 1.32647 50H48.6732C48.939 50 49.1564 49.7704 49.1564 49.4898V46.1732C49.1564 45.8926 48.939 45.663 48.6732 45.663H44.3251V21.8094H48.0693ZM24.9999 4.8887L41.3719 17.466H8.62777L24.9999 4.8887ZM10.0228 21.8094H17.0886V45.663H10.0228V21.8094ZM21.4368 21.8094H28.5025V45.663H21.4368V21.8094ZM39.9769 45.663H32.8507V21.8094H39.9769V45.663Z" fill="black"/>
<rect x="28.5" y="21.7998" width="4.5" height="23.9" fill="#F38630"/>
<rect x="17" y="21.7998" width="4.5" height="23.9" fill="#F38630"/>
</svg>
