<svg width="50" height="50" viewBox="0 0 50 50" fill="none" xmlns="http://www.w3.org/2000/svg">
<path d="M12.5 19.9219C12.5 20.6323 12.7822 21.3136 13.2845 21.8159C13.7869 22.3182 14.4682 22.6004 15.1786 22.6004C15.889 22.6004 16.5703 22.3182 17.0726 21.8159C17.5749 21.3136 17.8571 20.6323 17.8571 19.9219C17.8571 19.2115 17.5749 18.5302 17.0726 18.0278C16.5703 17.5255 15.889 17.2433 15.1786 17.2433C14.4682 17.2433 13.7869 17.5255 13.2845 18.0278C12.7822 18.5302 12.5 19.2115 12.5 19.9219V19.9219ZM32.1429 19.9219C32.1429 20.6323 32.4251 21.3136 32.9274 21.8159C33.4297 22.3182 34.111 22.6004 34.8214 22.6004C35.5318 22.6004 36.2131 22.3182 36.7155 21.8159C37.2178 21.3136 37.5 20.6323 37.5 19.9219C37.5 19.2115 37.2178 18.5302 36.7155 18.0278C36.2131 17.5255 35.5318 17.2433 34.8214 17.2433C34.111 17.2433 33.4297 17.5255 32.9274 18.0278C32.4251 18.5302 32.1429 19.2115 32.1429 19.9219V19.9219ZM25 0C11.1942 0 0 11.1942 0 25C0 38.8058 11.1942 50 25 50C38.8058 50 50 38.8058 50 25C50 11.1942 38.8058 0 25 0ZM39.6763 39.6763C37.7679 41.5848 35.5469 43.0804 33.0748 44.1295C30.5246 45.2121 27.8069 45.7589 25 45.7589C22.1931 45.7589 19.4754 45.2121 16.9196 44.1295C14.4513 43.087 12.2092 41.5746 10.3181 39.6763C8.4096 37.7679 6.91406 35.5469 5.86496 33.0748C4.78795 30.5246 4.24107 27.8069 4.24107 25C4.24107 22.1931 4.78795 19.4754 5.87054 16.9196C6.91299 14.4513 8.42543 12.2092 10.3237 10.3181C12.2321 8.4096 14.4531 6.91406 16.9252 5.86496C19.4754 4.78795 22.1931 4.24107 25 4.24107C27.8069 4.24107 30.5246 4.78795 33.0804 5.87054C35.5487 6.91299 37.7908 8.42543 39.6819 10.3237C41.5904 12.2321 43.0859 14.4531 44.135 16.9252C45.2121 19.4754 45.7589 22.1931 45.7589 25C45.7589 27.8069 45.2121 30.5246 44.1295 33.0804C43.0883 35.5478 41.5756 37.7883 39.6763 39.6763V39.6763ZM33.4821 26.1719H30.798C30.5636 26.1719 30.3627 26.3504 30.346 26.5848C30.1339 29.3471 27.8181 31.529 25 31.529C22.1819 31.529 19.8605 29.3471 19.654 26.5848C19.6373 26.3504 19.4364 26.1719 19.202 26.1719H16.5179C16.4573 26.1718 16.3974 26.184 16.3417 26.2079C16.286 26.2317 16.2358 26.2666 16.194 26.3104C16.1523 26.3543 16.1199 26.4062 16.0988 26.4629C16.0777 26.5197 16.0684 26.5801 16.0714 26.6406C16.317 31.3449 20.2288 35.1004 25 35.1004C29.7712 35.1004 33.683 31.3449 33.9286 26.6406C33.9316 26.5801 33.9223 26.5197 33.9012 26.4629C33.8801 26.4062 33.8477 26.3543 33.806 26.3104C33.7642 26.2666 33.714 26.2317 33.6583 26.2079C33.6026 26.184 33.5427 26.1718 33.4821 26.1719V26.1719Z" fill="black"/>
<circle cx="15" cy="20" r="3" fill="#F38630"/>
<circle cx="35" cy="20" r="3" fill="#F38630"/>
<path d="M16 26C16 28.6522 16.9482 31.1957 18.636 33.0711C20.3239 34.9464 22.6131 36 25 36C27.3869 36 29.6761 34.9464 31.364 33.0711C33.0518 31.1957 34 28.6522 34 26L29.6908 26C29.6908 27.3823 29.1966 28.708 28.3169 29.6854C27.4372 30.6629 26.2441 31.212 25 31.212C23.7559 31.212 22.5628 30.6629 21.6831 29.6854C20.8034 28.708 20.3092 27.3823 20.3092 26H16Z" fill="#F38630"/>
</svg>
