<svg width="50" height="42" viewBox="0 0 50 42" fill="none" xmlns="http://www.w3.org/2000/svg">
<path d="M45.3704 6.46154H37.5L35.625 1.22308C35.4955 0.864624 35.2581 0.55478 34.9453 0.335871C34.6325 0.116962 34.2595 -0.000336126 33.8773 7.23478e-07H16.1227C15.3414 7.23478e-07 14.6412 0.490385 14.3808 1.22308L12.5 6.46154H4.62963C2.07176 6.46154 0 8.52692 0 11.0769V37.3846C0 39.9346 2.07176 42 4.62963 42H45.3704C47.9282 42 50 39.9346 50 37.3846V11.0769C50 8.52692 47.9282 6.46154 45.3704 6.46154ZM45.8333 37.3846C45.8333 37.6385 45.625 37.8462 45.3704 37.8462H4.62963C4.375 37.8462 4.16667 37.6385 4.16667 37.3846V11.0769C4.16667 10.8231 4.375 10.6154 4.62963 10.6154H15.434L16.4236 7.85769L17.7488 4.15385H32.2454L33.5706 7.85769L34.5602 10.6154H45.3704C45.625 10.6154 45.8333 10.8231 45.8333 11.0769V37.3846ZM25 14.3077C19.8843 14.3077 15.7407 18.4385 15.7407 23.5385C15.7407 28.6385 19.8843 32.7692 25 32.7692C30.1157 32.7692 34.2593 28.6385 34.2593 23.5385C34.2593 18.4385 30.1157 14.3077 25 14.3077ZM25 29.0769C21.9329 29.0769 19.4444 26.5962 19.4444 23.5385C19.4444 20.4808 21.9329 18 25 18C28.0671 18 30.5556 20.4808 30.5556 23.5385C30.5556 26.5962 28.0671 29.0769 25 29.0769Z" fill="black"/>
<circle cx="25.5" cy="23.5" r="10.5" fill="#F38630"/>
<circle cx="25.5" cy="23.5" r="5.5" fill="white"/>
</svg>
